<?xml version="1.0" encoding="UTF-8" standalone="no"?>
<!-- Generator: Adobe Illustrator 18.0.0, SVG Export Plug-In . SVG Version: 6.00 Build 0)  -->

<svg
   xmlns:dc="http://purl.org/dc/elements/1.1/"
   xmlns:cc="http://creativecommons.org/ns#"
   xmlns:rdf="http://www.w3.org/1999/02/22-rdf-syntax-ns#"
   xmlns:svg="http://www.w3.org/2000/svg"
   xmlns="http://www.w3.org/2000/svg"
   xmlns:sodipodi="http://sodipodi.sourceforge.net/DTD/sodipodi-0.dtd"
   xmlns:inkscape="http://www.inkscape.org/namespaces/inkscape"
   version="1.1"
   id="Layer_1"
   x="0px"
   y="0px"
   width="120px"
   height="40px"
   viewBox="0 0 120 40"
   enable-background="new 0 0 120 40"
   xml:space="preserve"
   inkscape:version="0.91 r13725"
   sodipodi:docname="cust_icons.svg"><metadata
     id="metadata31"><rdf:RDF><cc:Work
         rdf:about=""><dc:format>image/svg+xml</dc:format><dc:type
           rdf:resource="http://purl.org/dc/dcmitype/StillImage" /><dc:title></dc:title></cc:Work></rdf:RDF></metadata><defs
     id="defs29" /><sodipodi:namedview
     pagecolor="#ffffff"
     bordercolor="#666666"
     borderopacity="1"
     objecttolerance="10"
     gridtolerance="10"
     guidetolerance="10"
     inkscape:pageopacity="0"
     inkscape:pageshadow="2"
     inkscape:window-width="1480"
     inkscape:window-height="821"
     id="namedview27"
     showgrid="false"
     inkscape:zoom="10.24"
     inkscape:cx="43.460065"
     inkscape:cy="9.6214916"
     inkscape:window-x="0"
     inkscape:window-y="0"
     inkscape:window-maximized="0"
     inkscape:current-layer="Layer_1" /><path
     fill-rule="evenodd"
     clip-rule="evenodd"
     fill="#C3C2B9"
     d="M93,17h-6c-3.9,0-7-3.1-7-7s3.1-7,7-7h6c3.9,0,7,3.1,7,7  S96.9,17,93,17z M93,5h-6c-2.8,0-5,2.2-5,5s2.2,5,5,5h6c2.8,0,5-2.2,5-5S95.8,5,93,5z M87,13c-1.7,0-3-1.3-3-3s1.3-3,3-3s3,1.3,3,3  S88.7,13,87,13z"
     id="path11" /><path
     fill-rule="evenodd"
     clip-rule="evenodd"
     fill="#C3C2B9"
     d="M117,8v9c0,0.6-0.4,1-1,1h-12c-0.6,0-1-0.4-1-1V8h-2V7  c0-0.6,0.4-1,1-1h2h2V3c0-0.6,0.4-1,1-1h6c0.6,0,1,0.4,1,1v3h2h2c0.6,0,1,0.4,1,1v1H117z M112,4h-4v2h4V4z M115,8h-1h-8h-1v8h10V8z   M107.5,10h1c0.3,0,0.5,0.2,0.5,0.5v3c0,0.3-0.2,0.5-0.5,0.5h-1c-0.3,0-0.5-0.2-0.5-0.5v-3C107,10.2,107.2,10,107.5,10z M111.5,10h1  c0.3,0,0.5,0.2,0.5,0.5v3c0,0.3-0.2,0.5-0.5,0.5h-1c-0.3,0-0.5-0.2-0.5-0.5v-3C111,10.2,111.2,10,111.5,10z"
     id="path13" /><path
     fill-rule="evenodd"
     clip-rule="evenodd"
     fill="#F05451"
     d="M93,37h-6c-3.9,0-7-3.1-7-7s3.1-7,7-7h6c3.9,0,7,3.1,7,7  S96.9,37,93,37z M93,25h-6c-2.8,0-5,2.2-5,5s2.2,5,5,5h6c2.8,0,5-2.2,5-5S95.8,25,93,25z M87,33c-1.7,0-3-1.3-3-3c0-1.7,1.3-3,3-3  s3,1.3,3,3C90,31.7,88.7,33,87,33z"
     id="path23"
     style="fill:#ff9a18;fill-opacity:1" /><path
     fill-rule="evenodd"
     clip-rule="evenodd"
     fill="#F05451"
     d="M117,28v9c0,0.6-0.4,1-1,1h-12c-0.6,0-1-0.4-1-1v-9h-2v-1  c0-0.6,0.4-1,1-1h2h2v-3c0-0.6,0.4-1,1-1h6c0.6,0,1,0.4,1,1v3h2h2c0.6,0,1,0.4,1,1v1H117z M112,24h-4v2h4V24z M115,28h-1h-8h-1v8h10  V28z M107.5,30h1c0.3,0,0.5,0.2,0.5,0.5v3c0,0.3-0.2,0.5-0.5,0.5h-1c-0.3,0-0.5-0.2-0.5-0.5v-3C107,30.2,107.2,30,107.5,30z   M111.5,30h1c0.3,0,0.5,0.2,0.5,0.5v3c0,0.3-0.2,0.5-0.5,0.5h-1c-0.3,0-0.5-0.2-0.5-0.5v-3C111,30.2,111.2,30,111.5,30z"
     id="path25"
     style="fill:#ff9a18;fill-opacity:1" /><g
     id="g4630"
     transform="matrix(0.71795778,0,0,0.78288508,0.91164523,19.746416)"
     style="fill:#ff9a18;fill-opacity:1"><g
       id="g4582"
       style="fill:#ff9a18;fill-opacity:1"><path
         id="path4584"
         d="M 25.484,7.114 21.206,3.197 C 21.034,3.069 20.825,3 20.61,3 L 5.38,3 C 5.165,3 4.956,3.069 4.783,3.197 l -4.38,4 C 0.403,7.197 0,7.453 0,8 l 0,2 c 0,0.551 0.449,1 1,1 l 24,0 c 0.551,0 1,-0.449 1,-1 L 26,8 C 26,7.469 25.484,7.114 25.484,7.114 Z"
         style="fill:#ff9a18;fill-opacity:1"
         inkscape:connector-curvature="0" /><path
         id="path4586"
         d="M 2,23 C 1.449,23 1,22.551 1,22 l 0,-12 3,0 0,12 c 0,0.551 -0.449,1 -1,1 l -1,0 z"
         style="fill:#ff9a18;fill-opacity:1"
         inkscape:connector-curvature="0" /><path
         id="path4588"
         d="m 23,23 c -0.551,0 -1,-0.449 -1,-1 l 0,-12 3,0 0,12 c 0,0.551 -0.449,1 -1,1 l -1,0 z"
         style="fill:#ff9a18;fill-opacity:1"
         inkscape:connector-curvature="0" /><path
         id="path4590"
         d="m 20,18 c -0.551,0 -1,-0.449 -1,-1 l 0,-5 2,0 0,5 c 0,0.551 -0.449,1 -1,1 l 0,0 z"
         style="fill:#ff9a18;fill-opacity:1"
         inkscape:connector-curvature="0" /><path
         id="path4592"
         d="M 6,18 C 5.449,18 5,17.551 5,17 l 0,-5 2,0 0,5 c 0,0.551 -0.449,1 -1,1 l 0,0 z"
         style="fill:#ff9a18;fill-opacity:1"
         inkscape:connector-curvature="0" /></g><g
       id="g4594"
       style="fill:#ff9a18;fill-opacity:1" /><g
       id="g4596"
       style="fill:#ff9a18;fill-opacity:1" /><g
       id="g4598"
       style="fill:#ff9a18;fill-opacity:1" /><g
       id="g4600"
       style="fill:#ff9a18;fill-opacity:1" /><g
       id="g4602"
       style="fill:#ff9a18;fill-opacity:1" /><g
       id="g4604"
       style="fill:#ff9a18;fill-opacity:1" /><g
       id="g4606"
       style="fill:#ff9a18;fill-opacity:1" /><g
       id="g4608"
       style="fill:#ff9a18;fill-opacity:1" /><g
       id="g4610"
       style="fill:#ff9a18;fill-opacity:1" /><g
       id="g4612"
       style="fill:#ff9a18;fill-opacity:1" /><g
       id="g4614"
       style="fill:#ff9a18;fill-opacity:1" /><g
       id="g4616"
       style="fill:#ff9a18;fill-opacity:1" /><g
       id="g4618"
       style="fill:#ff9a18;fill-opacity:1" /><g
       id="g4620"
       style="fill:#ff9a18;fill-opacity:1" /><g
       id="g4622"
       style="fill:#ff9a18;fill-opacity:1" /></g><g
     id="g5067"
     transform="matrix(0.01858895,0,0,0.01858895,22.196757,21.57455)"
     style="fill:#ff9a18;fill-opacity:1"><g
       id="g5027"
       style="fill:#ff9a18;fill-opacity:1"><path
         id="path5029"
         d="m 25.1,868.501 818.4,0 c 22.3,0 33.399,-26.9 17.7,-42.7 L 42.7,7.4 C 27,-8.299 0,2.8 0,25.101 l 0,218.7 65.3,0 c 16.6,0 30,13.4 30,30 0,16.6 -13.4,30 -30,30 l -65.2,0 0,95.199 65.2,0 c 16.6,0 30,13.4 30,30 0,16.6 -13.4,30 -30,30 l -65.2,0 0,95.3 65.2,0 c 16.6,0 30,13.4 30,30 0,16.601 -13.4,30 -30,30 l -65.2,0 0,95.3 65.2,0 c 16.6,0 30,13.4 30,30 0,16.601 -13.4,30 -30,30 l -65.2,0 0,73.9 c 0,13.801 11.2,25.001 25,25.001 z m 155,-469.201 289.2,289.201 -289.2,0 0,-289.201 z"
         inkscape:connector-curvature="0"
         style="fill:#ff9a18;fill-opacity:1" /></g><g
       id="g5031"
       style="fill:#ff9a18;fill-opacity:1" /><g
       id="g5033"
       style="fill:#ff9a18;fill-opacity:1" /><g
       id="g5035"
       style="fill:#ff9a18;fill-opacity:1" /><g
       id="g5037"
       style="fill:#ff9a18;fill-opacity:1" /><g
       id="g5039"
       style="fill:#ff9a18;fill-opacity:1" /><g
       id="g5041"
       style="fill:#ff9a18;fill-opacity:1" /><g
       id="g5043"
       style="fill:#ff9a18;fill-opacity:1" /><g
       id="g5045"
       style="fill:#ff9a18;fill-opacity:1" /><g
       id="g5047"
       style="fill:#ff9a18;fill-opacity:1" /><g
       id="g5049"
       style="fill:#ff9a18;fill-opacity:1" /><g
       id="g5051"
       style="fill:#ff9a18;fill-opacity:1" /><g
       id="g5053"
       style="fill:#ff9a18;fill-opacity:1" /><g
       id="g5055"
       style="fill:#ff9a18;fill-opacity:1" /><g
       id="g5057"
       style="fill:#ff9a18;fill-opacity:1" /><g
       id="g5059"
       style="fill:#ff9a18;fill-opacity:1" /></g><g
     id="g5290"
     transform="matrix(0.3205078,0,0,0.27024449,40.540382,21.590946)"
     style="fill:#ff9a18;fill-opacity:1"><g
       id="g5250"
       style="fill:#ff9a18;fill-opacity:1"><path
         id="path5252"
         d="M 58.141,2.5 C 58.135,2.402 58.127,2.305 58.112,2.208 58.096,2.123 58.073,2.042 58.05,1.96 58.029,1.875 58.005,1.79 57.972,1.708 57.944,1.628 57.903,1.552 57.864,1.475 57.825,1.396 57.786,1.319 57.739,1.244 57.692,1.172 57.636,1.103 57.585,1.035 57.532,0.968 57.481,0.899 57.423,0.837 57.355,0.766 57.278,0.703 57.202,0.639 57.155,0.601 57.118,0.555 57.067,0.519 57.052,0.509 57.038,0.503 57.024,0.494 56.94,0.433 56.847,0.387 56.757,0.338 56.694,0.302 56.628,0.26 56.56,0.231 56.481,0.194 56.392,0.171 56.308,0.144 56.226,0.117 56.142,0.085 56.058,0.066 55.985,0.05 55.907,0.045 55.829,0.035 55.729,0.022 55.633,0.006 55.53,0.005 55.51,0.005 55.495,0 55.475,0 L 28.629,0 c -0.027,0 -0.054,0.007 -0.081,0.008 -0.101,0.003 -0.199,0.016 -0.299,0.03 -0.08,0.012 -0.16,0.021 -0.239,0.04 -0.083,0.021 -0.164,0.048 -0.245,0.077 -0.09,0.03 -0.18,0.062 -0.268,0.104 -0.026,0.012 -0.055,0.018 -0.081,0.031 L 3.221,12.55 c -0.047,0.022 -0.085,0.056 -0.13,0.082 -0.083,0.048 -0.164,0.099 -0.24,0.154 -0.07,0.052 -0.136,0.106 -0.2,0.165 -0.063,0.057 -0.125,0.115 -0.183,0.177 -0.061,0.065 -0.116,0.135 -0.17,0.206 -0.051,0.067 -0.099,0.135 -0.143,0.207 -0.046,0.073 -0.085,0.15 -0.124,0.229 -0.039,0.076 -0.073,0.154 -0.104,0.237 -0.031,0.081 -0.056,0.165 -0.078,0.25 -0.021,0.081 -0.041,0.162 -0.055,0.246 -0.016,0.095 -0.023,0.191 -0.029,0.29 -0.003,0.051 -0.015,0.099 -0.015,0.15 l 0,18.172 c -0.13,0.9 -0.215,1.838 -0.242,2.818 l 0.242,0.006 0,21.043 c 0,1.481 1.201,2.684 2.683,2.684 l 42.031,0 c 0.002,0 0.006,0 0.008,0 0.166,0 0.33,-0.02 0.49,-0.049 0.051,-0.012 0.101,-0.021 0.149,-0.035 0.105,-0.025 0.211,-0.061 0.312,-0.1 0.058,-0.021 0.108,-0.041 0.162,-0.064 0.103,-0.047 0.198,-0.102 0.293,-0.16 0.039,-0.021 0.08,-0.043 0.116,-0.068 0.132,-0.09 0.254,-0.188 0.365,-0.301 0.017,-0.018 0.027,-0.033 0.043,-0.051 0.094,-0.1 0.183,-0.203 0.26,-0.312 0.029,-0.043 0.058,-0.09 0.084,-0.135 0.056,-0.092 0.105,-0.184 0.15,-0.275 0.025,-0.059 0.053,-0.116 0.074,-0.18 0.016,-0.039 0.035,-0.074 0.047,-0.113 l 9.006,-27.455 c 0.014,-0.047 0.018,-0.094 0.029,-0.141 0.021,-0.094 0.045,-0.186 0.061,-0.272 0.017,-0.095 0.021,-0.188 0.027,-0.279 0.002,-0.049 0.016,-0.094 0.016,-0.145 l 0,-26.851 C 58.161,2.618 58.145,2.56 58.141,2.5 Z m -51.023,15.126 6.002,0 c -2.184,1.172 -4.241,2.63 -6.002,4.438 l 0,-4.438 z m 12.096,0.224 c 0.228,-0.078 0.456,-0.152 0.684,-0.225 l 6.049,0 4.01,0 c -1.627,0.307 -3.311,0.683 -5.003,1.146 -8.873,2.424 -14.899,6.421 -17.835,11.721 l 0,-4.219 -10e-4,0 C 9.596,22.561 13.631,19.74 19.214,17.85 Z m -10.615,36.448 -1.483,0 0,-7.728 0.62,-8.237 C 8.262,18.833 43.428,18.979 43.774,18.969 l 0.014,-1.341 0,3.042 c -3.176,0.07 -9.545,0.427 -16.029,2.045 -12.3,3.069 -18.925,9.25 -19.159,17.908 l 0,13.675 z m 3.548,0 -0.864,0 0,-13.638 -10e-4,0 C 11.696,25.327 36.471,23.549 43.787,23.361 l 0,0.908 c -2.502,0.049 -8.559,0.351 -14.733,2.015 -10.845,2.923 -16.691,8.672 -16.906,16.665 l -10e-4,11.349 0,0 z m 3.114,0 -0.431,0 0,-11.314 C 15.222,28.51 38.333,27.096 43.79,26.961 l 0,1.3 0,0 C 41.485,28.306 36.2,28.575 30.811,30.044 21.12,32.686 15.893,37.94 15.697,45.21 l -0.436,9.088 z m 9.675,-0.002 c 0.056,-4.821 1.534,-8.608 4.412,-11.241 4.893,-4.479 12.492,-4.492 14.439,-4.414 l 0,1.012 c -2.144,-0.279 -5.943,0.113 -8.996,1.449 -3.723,1.629 -8.053,5.239 -8.249,13.194 l -1.606,0 z m 4.299,0 c 0.115,-4.03 1.455,-7.116 4.011,-9.168 3.75,-3.01 8.984,-2.972 10.359,-2.813 L 43.6,42.541 c 0.061,0 0.123,0.002 0.188,0.004 l 0,1.188 c -5.232,0.201 -13.512,2.553 -13.896,10.563 l -0.657,0 z m 14.555,0.002 -7.026,0 0,-0.002 c 0.75,-1.422 2.14,-2.479 4.213,-3.188 0.979,-0.336 1.966,-0.537 2.813,-0.656 l 0,3.846 z m 0,-6.579 c -3.784,0.461 -8.504,2.192 -9.938,6.577 l -1.273,0 c 0.207,-3.282 2.214,-5.603 5.979,-6.885 2,-0.685 4.021,-0.904 5.231,-0.978 l 0,1.286 z m 0,-11.766 c -2.452,-0.098 -10.643,0 -16.24,5.109 -3.463,3.164 -5.243,7.617 -5.302,13.233 l -0.325,0 0,-6.659 C 22.231,36.2 39.2,34.947 43.79,34.818 l 0,1.135 z m 0.002,-3.823 -0.002,0 c -2.094,0.05 -6.618,0.312 -11.235,1.611 -8.528,2.399 -13.133,7.182 -13.312,13.858 l 0,6.693 -1.291,0 0.427,-8.984 C 18.729,32.357 38.762,31.066 43.794,30.947 l -0.002,1.183 0,0 z m 1.32,-19.871 -13.801,0 -5.367,0 -10.282,0 10.282,-5.211 3.324,-1.686 2.043,0 18.864,0 -5.063,6.897 z m 6.658,19.949 -2.615,7.979 0,-7.979 0,-5.366 0,-11.02 3.638,-4.953 0,15.973 c 0,0 0.147,1.804 0.133,1.848 l -1.156,3.518 z"
         inkscape:connector-curvature="0"
         style="fill:#ff9a18;fill-opacity:1" /></g><g
       id="g5254"
       style="fill:#ff9a18;fill-opacity:1" /><g
       id="g5256"
       style="fill:#ff9a18;fill-opacity:1" /><g
       id="g5258"
       style="fill:#ff9a18;fill-opacity:1" /><g
       id="g5260"
       style="fill:#ff9a18;fill-opacity:1" /><g
       id="g5262"
       style="fill:#ff9a18;fill-opacity:1" /><g
       id="g5264"
       style="fill:#ff9a18;fill-opacity:1" /><g
       id="g5266"
       style="fill:#ff9a18;fill-opacity:1" /><g
       id="g5268"
       style="fill:#ff9a18;fill-opacity:1" /><g
       id="g5270"
       style="fill:#ff9a18;fill-opacity:1" /><g
       id="g5272"
       style="fill:#ff9a18;fill-opacity:1" /><g
       id="g5274"
       style="fill:#ff9a18;fill-opacity:1" /><g
       id="g5276"
       style="fill:#ff9a18;fill-opacity:1" /><g
       id="g5278"
       style="fill:#ff9a18;fill-opacity:1" /><g
       id="g5280"
       style="fill:#ff9a18;fill-opacity:1" /><g
       id="g5282"
       style="fill:#ff9a18;fill-opacity:1" /></g><g
     id="g5481"
     transform="matrix(0.07729289,0,0,0.09264532,61.606701,20.100388)"
     style="fill:#ff9a18;fill-opacity:1"><g
       id="g5415"
       style="fill:#ff9a18;fill-opacity:1"><g
         id="g5417"
         style="fill:#ff9a18;fill-opacity:1"><path
           id="path5419"
           d="M 1.752,191.518 C 0.785,191.518 0,190.734 0,189.765 l 0,-31.833 c 0,-0.965 0.785,-1.752 1.752,-1.752 l 47.853,0 c 0.094,-0.096 0.203,-0.209 0.311,-0.325 2.745,-2.851 11.091,-11.536 9.563,-21.665 -1.135,-7.512 -7.43,-14.483 -18.712,-20.719 -13.766,-7.612 -24.022,-9.224 -29.675,-4.646 -5.501,4.455 -5.736,14.209 -4.16,19.4 1.33,4.377 3.491,7.039 6.427,7.918 6.964,2.099 16.527,-5.759 16.618,-5.838 0.739,-0.623 1.843,-0.523 2.467,0.223 0.62,0.739 0.519,1.845 -0.221,2.464 -0.448,0.373 -11.067,9.113 -19.862,6.509 -4.136,-1.238 -7.089,-4.688 -8.783,-10.26 -1.906,-6.289 -1.523,-17.62 5.309,-23.144 6.938,-5.619 18.24,-4.173 33.575,4.309 12.282,6.789 19.176,14.619 20.483,23.264 1.787,11.834 -7.465,21.453 -10.502,24.612 -0.33,0.346 -0.582,0.605 -0.722,0.773 -0.333,0.396 -0.823,0.629 -1.347,0.629 l -46.87,0 0,30.081 c 0,0.969 -0.78,1.753 -1.752,1.753 z"
           inkscape:connector-curvature="0"
           style="fill:#ff9a18;fill-opacity:1" /></g><g
         id="g5421"
         style="fill:#ff9a18;fill-opacity:1"><polygon
           id="polygon5423"
           points="1.752,189.765 59.135,189.765 212.448,189.765 212.448,169.759 59.135,169.759 59.135,157.932 1.752,157.932 1.752,169.759 "
           style="fill:#ff9a18;fill-opacity:1" /><path
           id="path5425"
           d="m 214.2,191.518 -214.2,0 0,-35.338 60.887,0 0,11.827 153.313,0 0,23.511 z m -210.696,-3.505 207.191,0 0,-16.502 -153.312,0 0,-11.827 -53.879,0 0,28.329 z"
           inkscape:connector-curvature="0"
           style="fill:#ff9a18;fill-opacity:1" /></g><g
         id="g5427"
         style="fill:#ff9a18;fill-opacity:1"><polygon
           id="polygon5429"
           points="111.262,111.063 117.394,99.388 129.221,111.063 116.518,115.881 61.421,166.255 61.421,157.932 "
           style="fill:#ff9a18;fill-opacity:1" /><path
           id="path5431"
           d="m 59.669,170.232 0,-13.056 50.181,-47.188 7.093,-13.509 15.451,15.258 -14.945,5.664 -57.78,52.831 z m 3.504,-11.54 0,3.587 52.726,-48.037 10.153,-3.852 -8.206,-8.099 -5.38,10.044 -49.293,46.357 z"
           inkscape:connector-curvature="0"
           style="fill:#ff9a18;fill-opacity:1" /></g><g
         id="g5433"
         style="fill:#ff9a18;fill-opacity:1"><polygon
           id="polygon5435"
           points="120.022,93.541 135.354,109.311 145.428,101.426 129.221,83.466 "
           style="fill:#ff9a18;fill-opacity:1" /><path
           id="path5437"
           d="m 135.192,111.665 -17.58,-18.084 11.612,-12.72 18.764,20.792 -12.796,10.012 z m -12.76,-18.162 13.086,13.456 7.351,-5.756 -13.65,-15.129 -6.787,7.429 z"
           inkscape:connector-curvature="0"
           style="fill:#ff9a18;fill-opacity:1" /></g><g
         id="g5439"
         style="fill:#ff9a18;fill-opacity:1"><polygon
           id="polygon5441"
           points="212.448,40.101 198.431,24.769 190.108,24.769 160.321,55.87 132.726,79.086 150.247,99.388 177.843,72.515 208.943,47.547 "
           style="fill:#ff9a18;fill-opacity:1" /><path
           id="path5443"
           d="m 150.137,101.939 -19.897,-23.052 28.952,-24.359 30.166,-31.511 9.846,0 15.331,16.769 -4.175,8.874 -31.416,25.219 -28.807,28.06 z m -14.927,-22.656 15.146,17.551 26.265,-25.576 30.905,-24.825 2.837,-6.02 -12.706,-13.896 -6.797,0 -29.272,30.563 -26.378,22.203 z"
           inkscape:connector-curvature="0"
           style="fill:#ff9a18;fill-opacity:1" /></g></g><g
       id="g5445"
       style="fill:#ff9a18;fill-opacity:1" /><g
       id="g5447"
       style="fill:#ff9a18;fill-opacity:1" /><g
       id="g5449"
       style="fill:#ff9a18;fill-opacity:1" /><g
       id="g5451"
       style="fill:#ff9a18;fill-opacity:1" /><g
       id="g5453"
       style="fill:#ff9a18;fill-opacity:1" /><g
       id="g5455"
       style="fill:#ff9a18;fill-opacity:1" /><g
       id="g5457"
       style="fill:#ff9a18;fill-opacity:1" /><g
       id="g5459"
       style="fill:#ff9a18;fill-opacity:1" /><g
       id="g5461"
       style="fill:#ff9a18;fill-opacity:1" /><g
       id="g5463"
       style="fill:#ff9a18;fill-opacity:1" /><g
       id="g5465"
       style="fill:#ff9a18;fill-opacity:1" /><g
       id="g5467"
       style="fill:#ff9a18;fill-opacity:1" /><g
       id="g5469"
       style="fill:#ff9a18;fill-opacity:1" /><g
       id="g5471"
       style="fill:#ff9a18;fill-opacity:1" /><g
       id="g5473"
       style="fill:#ff9a18;fill-opacity:1" /></g><g
     style="fill:#c3c2b9;fill-opacity:1"
     transform="matrix(0.71795778,0,0,0.78288508,0.91164523,-0.0582715)"
     id="g5513"><g
       style="fill:#c3c2b9;fill-opacity:1"
       id="g5515"><path
         inkscape:connector-curvature="0"
         style="fill:#c3c2b9;fill-opacity:1"
         d="M 25.484,7.114 21.206,3.197 C 21.034,3.069 20.825,3 20.61,3 L 5.38,3 C 5.165,3 4.956,3.069 4.783,3.197 l -4.38,4 C 0.403,7.197 0,7.453 0,8 l 0,2 c 0,0.551 0.449,1 1,1 l 24,0 c 0.551,0 1,-0.449 1,-1 L 26,8 C 26,7.469 25.484,7.114 25.484,7.114 Z"
         id="path5517" /><path
         inkscape:connector-curvature="0"
         style="fill:#c3c2b9;fill-opacity:1"
         d="M 2,23 C 1.449,23 1,22.551 1,22 l 0,-12 3,0 0,12 c 0,0.551 -0.449,1 -1,1 l -1,0 z"
         id="path5519" /><path
         inkscape:connector-curvature="0"
         style="fill:#c3c2b9;fill-opacity:1"
         d="m 23,23 c -0.551,0 -1,-0.449 -1,-1 l 0,-12 3,0 0,12 c 0,0.551 -0.449,1 -1,1 l -1,0 z"
         id="path5521" /><path
         inkscape:connector-curvature="0"
         style="fill:#c3c2b9;fill-opacity:1"
         d="m 20,18 c -0.551,0 -1,-0.449 -1,-1 l 0,-5 2,0 0,5 c 0,0.551 -0.449,1 -1,1 l 0,0 z"
         id="path5523" /><path
         inkscape:connector-curvature="0"
         style="fill:#c3c2b9;fill-opacity:1"
         d="M 6,18 C 5.449,18 5,17.551 5,17 l 0,-5 2,0 0,5 c 0,0.551 -0.449,1 -1,1 l 0,0 z"
         id="path5525" /></g><g
       style="fill:#c3c2b9;fill-opacity:1"
       id="g5527" /><g
       style="fill:#c3c2b9;fill-opacity:1"
       id="g5529" /><g
       style="fill:#c3c2b9;fill-opacity:1"
       id="g5531" /><g
       style="fill:#c3c2b9;fill-opacity:1"
       id="g5533" /><g
       style="fill:#c3c2b9;fill-opacity:1"
       id="g5535" /><g
       style="fill:#c3c2b9;fill-opacity:1"
       id="g5537" /><g
       style="fill:#c3c2b9;fill-opacity:1"
       id="g5539" /><g
       style="fill:#c3c2b9;fill-opacity:1"
       id="g5541" /><g
       style="fill:#c3c2b9;fill-opacity:1"
       id="g5543" /><g
       style="fill:#c3c2b9;fill-opacity:1"
       id="g5545" /><g
       style="fill:#c3c2b9;fill-opacity:1"
       id="g5547" /><g
       style="fill:#c3c2b9;fill-opacity:1"
       id="g5549" /><g
       style="fill:#c3c2b9;fill-opacity:1"
       id="g5551" /><g
       style="fill:#c3c2b9;fill-opacity:1"
       id="g5553" /><g
       style="fill:#c3c2b9;fill-opacity:1"
       id="g5555" /></g><g
     style="fill:#c3c2b9;fill-opacity:1"
     transform="matrix(0.01858895,0,0,0.01858895,22.196757,1.7698625)"
     id="g5557"><g
       style="fill:#c3c2b9;fill-opacity:1"
       id="g5559"><path
         style="fill:#c3c2b9;fill-opacity:1"
         inkscape:connector-curvature="0"
         d="m 25.1,868.501 818.4,0 c 22.3,0 33.399,-26.9 17.7,-42.7 L 42.7,7.4 C 27,-8.299 0,2.8 0,25.101 l 0,218.7 65.3,0 c 16.6,0 30,13.4 30,30 0,16.6 -13.4,30 -30,30 l -65.2,0 0,95.199 65.2,0 c 16.6,0 30,13.4 30,30 0,16.6 -13.4,30 -30,30 l -65.2,0 0,95.3 65.2,0 c 16.6,0 30,13.4 30,30 0,16.601 -13.4,30 -30,30 l -65.2,0 0,95.3 65.2,0 c 16.6,0 30,13.4 30,30 0,16.601 -13.4,30 -30,30 l -65.2,0 0,73.9 c 0,13.801 11.2,25.001 25,25.001 z m 155,-469.201 289.2,289.201 -289.2,0 0,-289.201 z"
         id="path5561" /></g><g
       style="fill:#c3c2b9;fill-opacity:1"
       id="g5563" /><g
       style="fill:#c3c2b9;fill-opacity:1"
       id="g5565" /><g
       style="fill:#c3c2b9;fill-opacity:1"
       id="g5567" /><g
       style="fill:#c3c2b9;fill-opacity:1"
       id="g5569" /><g
       style="fill:#c3c2b9;fill-opacity:1"
       id="g5571" /><g
       style="fill:#c3c2b9;fill-opacity:1"
       id="g5573" /><g
       style="fill:#c3c2b9;fill-opacity:1"
       id="g5575" /><g
       style="fill:#c3c2b9;fill-opacity:1"
       id="g5577" /><g
       style="fill:#c3c2b9;fill-opacity:1"
       id="g5579" /><g
       style="fill:#c3c2b9;fill-opacity:1"
       id="g5581" /><g
       style="fill:#c3c2b9;fill-opacity:1"
       id="g5583" /><g
       style="fill:#c3c2b9;fill-opacity:1"
       id="g5585" /><g
       style="fill:#c3c2b9;fill-opacity:1"
       id="g5587" /><g
       style="fill:#c3c2b9;fill-opacity:1"
       id="g5589" /><g
       style="fill:#c3c2b9;fill-opacity:1"
       id="g5591" /></g><g
     style="fill:#c3c2b9;fill-opacity:1"
     transform="matrix(0.3205078,0,0,0.27024449,40.540382,1.7862585)"
     id="g5593"><g
       style="fill:#c3c2b9;fill-opacity:1"
       id="g5595"><path
         style="fill:#c3c2b9;fill-opacity:1"
         inkscape:connector-curvature="0"
         d="M 58.141,2.5 C 58.135,2.402 58.127,2.305 58.112,2.208 58.096,2.123 58.073,2.042 58.05,1.96 58.029,1.875 58.005,1.79 57.972,1.708 57.944,1.628 57.903,1.552 57.864,1.475 57.825,1.396 57.786,1.319 57.739,1.244 57.692,1.172 57.636,1.103 57.585,1.035 57.532,0.968 57.481,0.899 57.423,0.837 57.355,0.766 57.278,0.703 57.202,0.639 57.155,0.601 57.118,0.555 57.067,0.519 57.052,0.509 57.038,0.503 57.024,0.494 56.94,0.433 56.847,0.387 56.757,0.338 56.694,0.302 56.628,0.26 56.56,0.231 56.481,0.194 56.392,0.171 56.308,0.144 56.226,0.117 56.142,0.085 56.058,0.066 55.985,0.05 55.907,0.045 55.829,0.035 55.729,0.022 55.633,0.006 55.53,0.005 55.51,0.005 55.495,0 55.475,0 L 28.629,0 c -0.027,0 -0.054,0.007 -0.081,0.008 -0.101,0.003 -0.199,0.016 -0.299,0.03 -0.08,0.012 -0.16,0.021 -0.239,0.04 -0.083,0.021 -0.164,0.048 -0.245,0.077 -0.09,0.03 -0.18,0.062 -0.268,0.104 -0.026,0.012 -0.055,0.018 -0.081,0.031 L 3.221,12.55 c -0.047,0.022 -0.085,0.056 -0.13,0.082 -0.083,0.048 -0.164,0.099 -0.24,0.154 -0.07,0.052 -0.136,0.106 -0.2,0.165 -0.063,0.057 -0.125,0.115 -0.183,0.177 -0.061,0.065 -0.116,0.135 -0.17,0.206 -0.051,0.067 -0.099,0.135 -0.143,0.207 -0.046,0.073 -0.085,0.15 -0.124,0.229 -0.039,0.076 -0.073,0.154 -0.104,0.237 -0.031,0.081 -0.056,0.165 -0.078,0.25 -0.021,0.081 -0.041,0.162 -0.055,0.246 -0.016,0.095 -0.023,0.191 -0.029,0.29 -0.003,0.051 -0.015,0.099 -0.015,0.15 l 0,18.172 c -0.13,0.9 -0.215,1.838 -0.242,2.818 l 0.242,0.006 0,21.043 c 0,1.481 1.201,2.684 2.683,2.684 l 42.031,0 c 0.002,0 0.006,0 0.008,0 0.166,0 0.33,-0.02 0.49,-0.049 0.051,-0.012 0.101,-0.021 0.149,-0.035 0.105,-0.025 0.211,-0.061 0.312,-0.1 0.058,-0.021 0.108,-0.041 0.162,-0.064 0.103,-0.047 0.198,-0.102 0.293,-0.16 0.039,-0.021 0.08,-0.043 0.116,-0.068 0.132,-0.09 0.254,-0.188 0.365,-0.301 0.017,-0.018 0.027,-0.033 0.043,-0.051 0.094,-0.1 0.183,-0.203 0.26,-0.312 0.029,-0.043 0.058,-0.09 0.084,-0.135 0.056,-0.092 0.105,-0.184 0.15,-0.275 0.025,-0.059 0.053,-0.116 0.074,-0.18 0.016,-0.039 0.035,-0.074 0.047,-0.113 l 9.006,-27.455 c 0.014,-0.047 0.018,-0.094 0.029,-0.141 0.021,-0.094 0.045,-0.186 0.061,-0.272 0.017,-0.095 0.021,-0.188 0.027,-0.279 0.002,-0.049 0.016,-0.094 0.016,-0.145 l 0,-26.851 C 58.161,2.618 58.145,2.56 58.141,2.5 Z m -51.023,15.126 6.002,0 c -2.184,1.172 -4.241,2.63 -6.002,4.438 l 0,-4.438 z m 12.096,0.224 c 0.228,-0.078 0.456,-0.152 0.684,-0.225 l 6.049,0 4.01,0 c -1.627,0.307 -3.311,0.683 -5.003,1.146 -8.873,2.424 -14.899,6.421 -17.835,11.721 l 0,-4.219 -10e-4,0 C 9.596,22.561 13.631,19.74 19.214,17.85 Z m -10.615,36.448 -1.483,0 0,-7.728 0.62,-8.237 C 8.262,18.833 43.428,18.979 43.774,18.969 l 0.014,-1.341 0,3.042 c -3.176,0.07 -9.545,0.427 -16.029,2.045 -12.3,3.069 -18.925,9.25 -19.159,17.908 l 0,13.675 z m 3.548,0 -0.864,0 0,-13.638 -10e-4,0 C 11.696,25.327 36.471,23.549 43.787,23.361 l 0,0.908 c -2.502,0.049 -8.559,0.351 -14.733,2.015 -10.845,2.923 -16.691,8.672 -16.906,16.665 l -10e-4,11.349 0,0 z m 3.114,0 -0.431,0 0,-11.314 C 15.222,28.51 38.333,27.096 43.79,26.961 l 0,1.3 0,0 C 41.485,28.306 36.2,28.575 30.811,30.044 21.12,32.686 15.893,37.94 15.697,45.21 l -0.436,9.088 z m 9.675,-0.002 c 0.056,-4.821 1.534,-8.608 4.412,-11.241 4.893,-4.479 12.492,-4.492 14.439,-4.414 l 0,1.012 c -2.144,-0.279 -5.943,0.113 -8.996,1.449 -3.723,1.629 -8.053,5.239 -8.249,13.194 l -1.606,0 z m 4.299,0 c 0.115,-4.03 1.455,-7.116 4.011,-9.168 3.75,-3.01 8.984,-2.972 10.359,-2.813 L 43.6,42.541 c 0.061,0 0.123,0.002 0.188,0.004 l 0,1.188 c -5.232,0.201 -13.512,2.553 -13.896,10.563 l -0.657,0 z m 14.555,0.002 -7.026,0 0,-0.002 c 0.75,-1.422 2.14,-2.479 4.213,-3.188 0.979,-0.336 1.966,-0.537 2.813,-0.656 l 0,3.846 z m 0,-6.579 c -3.784,0.461 -8.504,2.192 -9.938,6.577 l -1.273,0 c 0.207,-3.282 2.214,-5.603 5.979,-6.885 2,-0.685 4.021,-0.904 5.231,-0.978 l 0,1.286 z m 0,-11.766 c -2.452,-0.098 -10.643,0 -16.24,5.109 -3.463,3.164 -5.243,7.617 -5.302,13.233 l -0.325,0 0,-6.659 C 22.231,36.2 39.2,34.947 43.79,34.818 l 0,1.135 z m 0.002,-3.823 -0.002,0 c -2.094,0.05 -6.618,0.312 -11.235,1.611 -8.528,2.399 -13.133,7.182 -13.312,13.858 l 0,6.693 -1.291,0 0.427,-8.984 C 18.729,32.357 38.762,31.066 43.794,30.947 l -0.002,1.183 0,0 z m 1.32,-19.871 -13.801,0 -5.367,0 -10.282,0 10.282,-5.211 3.324,-1.686 2.043,0 18.864,0 -5.063,6.897 z m 6.658,19.949 -2.615,7.979 0,-7.979 0,-5.366 0,-11.02 3.638,-4.953 0,15.973 c 0,0 0.147,1.804 0.133,1.848 l -1.156,3.518 z"
         id="path5597" /></g><g
       style="fill:#c3c2b9;fill-opacity:1"
       id="g5599" /><g
       style="fill:#c3c2b9;fill-opacity:1"
       id="g5601" /><g
       style="fill:#c3c2b9;fill-opacity:1"
       id="g5603" /><g
       style="fill:#c3c2b9;fill-opacity:1"
       id="g5605" /><g
       style="fill:#c3c2b9;fill-opacity:1"
       id="g5607" /><g
       style="fill:#c3c2b9;fill-opacity:1"
       id="g5609" /><g
       style="fill:#c3c2b9;fill-opacity:1"
       id="g5611" /><g
       style="fill:#c3c2b9;fill-opacity:1"
       id="g5613" /><g
       style="fill:#c3c2b9;fill-opacity:1"
       id="g5615" /><g
       style="fill:#c3c2b9;fill-opacity:1"
       id="g5617" /><g
       style="fill:#c3c2b9;fill-opacity:1"
       id="g5619" /><g
       style="fill:#c3c2b9;fill-opacity:1"
       id="g5621" /><g
       style="fill:#c3c2b9;fill-opacity:1"
       id="g5623" /><g
       style="fill:#c3c2b9;fill-opacity:1"
       id="g5625" /><g
       style="fill:#c3c2b9;fill-opacity:1"
       id="g5627" /></g><g
     style="fill:#c3c2b9;fill-opacity:1"
     transform="matrix(0.07729289,0,0,0.09264532,61.606701,0.2957005)"
     id="g5629"><g
       style="fill:#c3c2b9;fill-opacity:1"
       id="g5631"><g
         style="fill:#c3c2b9;fill-opacity:1"
         id="g5633"><path
           style="fill:#c3c2b9;fill-opacity:1"
           inkscape:connector-curvature="0"
           d="M 1.752,191.518 C 0.785,191.518 0,190.734 0,189.765 l 0,-31.833 c 0,-0.965 0.785,-1.752 1.752,-1.752 l 47.853,0 c 0.094,-0.096 0.203,-0.209 0.311,-0.325 2.745,-2.851 11.091,-11.536 9.563,-21.665 -1.135,-7.512 -7.43,-14.483 -18.712,-20.719 -13.766,-7.612 -24.022,-9.224 -29.675,-4.646 -5.501,4.455 -5.736,14.209 -4.16,19.4 1.33,4.377 3.491,7.039 6.427,7.918 6.964,2.099 16.527,-5.759 16.618,-5.838 0.739,-0.623 1.843,-0.523 2.467,0.223 0.62,0.739 0.519,1.845 -0.221,2.464 -0.448,0.373 -11.067,9.113 -19.862,6.509 -4.136,-1.238 -7.089,-4.688 -8.783,-10.26 -1.906,-6.289 -1.523,-17.62 5.309,-23.144 6.938,-5.619 18.24,-4.173 33.575,4.309 12.282,6.789 19.176,14.619 20.483,23.264 1.787,11.834 -7.465,21.453 -10.502,24.612 -0.33,0.346 -0.582,0.605 -0.722,0.773 -0.333,0.396 -0.823,0.629 -1.347,0.629 l -46.87,0 0,30.081 c 0,0.969 -0.78,1.753 -1.752,1.753 z"
           id="path5635" /></g><g
         style="fill:#c3c2b9;fill-opacity:1"
         id="g5637"><polygon
           style="fill:#c3c2b9;fill-opacity:1"
           points="212.448,169.759 59.135,169.759 59.135,157.932 1.752,157.932 1.752,169.759 1.752,189.765 59.135,189.765 212.448,189.765 "
           id="polygon5639" /><path
           style="fill:#c3c2b9;fill-opacity:1"
           inkscape:connector-curvature="0"
           d="m 214.2,191.518 -214.2,0 0,-35.338 60.887,0 0,11.827 153.313,0 0,23.511 z m -210.696,-3.505 207.191,0 0,-16.502 -153.312,0 0,-11.827 -53.879,0 0,28.329 z"
           id="path5641" /></g><g
         style="fill:#c3c2b9;fill-opacity:1"
         id="g5643"><polygon
           style="fill:#c3c2b9;fill-opacity:1"
           points="61.421,157.932 111.262,111.063 117.394,99.388 129.221,111.063 116.518,115.881 61.421,166.255 "
           id="polygon5645" /><path
           style="fill:#c3c2b9;fill-opacity:1"
           inkscape:connector-curvature="0"
           d="m 59.669,170.232 0,-13.056 50.181,-47.188 7.093,-13.509 15.451,15.258 -14.945,5.664 -57.78,52.831 z m 3.504,-11.54 0,3.587 52.726,-48.037 10.153,-3.852 -8.206,-8.099 -5.38,10.044 -49.293,46.357 z"
           id="path5647" /></g><g
         style="fill:#c3c2b9;fill-opacity:1"
         id="g5649"><polygon
           style="fill:#c3c2b9;fill-opacity:1"
           points="129.221,83.466 120.022,93.541 135.354,109.311 145.428,101.426 "
           id="polygon5651" /><path
           style="fill:#c3c2b9;fill-opacity:1"
           inkscape:connector-curvature="0"
           d="m 135.192,111.665 -17.58,-18.084 11.612,-12.72 18.764,20.792 -12.796,10.012 z m -12.76,-18.162 13.086,13.456 7.351,-5.756 -13.65,-15.129 -6.787,7.429 z"
           id="path5653" /></g><g
         style="fill:#c3c2b9;fill-opacity:1"
         id="g5655"><polygon
           style="fill:#c3c2b9;fill-opacity:1"
           points="160.321,55.87 132.726,79.086 150.247,99.388 177.843,72.515 208.943,47.547 212.448,40.101 198.431,24.769 190.108,24.769 "
           id="polygon5657" /><path
           style="fill:#c3c2b9;fill-opacity:1"
           inkscape:connector-curvature="0"
           d="m 150.137,101.939 -19.897,-23.052 28.952,-24.359 30.166,-31.511 9.846,0 15.331,16.769 -4.175,8.874 -31.416,25.219 -28.807,28.06 z m -14.927,-22.656 15.146,17.551 26.265,-25.576 30.905,-24.825 2.837,-6.02 -12.706,-13.896 -6.797,0 -29.272,30.563 -26.378,22.203 z"
           id="path5659" /></g></g><g
       style="fill:#c3c2b9;fill-opacity:1"
       id="g5661" /><g
       style="fill:#c3c2b9;fill-opacity:1"
       id="g5663" /><g
       style="fill:#c3c2b9;fill-opacity:1"
       id="g5665" /><g
       style="fill:#c3c2b9;fill-opacity:1"
       id="g5667" /><g
       style="fill:#c3c2b9;fill-opacity:1"
       id="g5669" /><g
       style="fill:#c3c2b9;fill-opacity:1"
       id="g5671" /><g
       style="fill:#c3c2b9;fill-opacity:1"
       id="g5673" /><g
       style="fill:#c3c2b9;fill-opacity:1"
       id="g5675" /><g
       style="fill:#c3c2b9;fill-opacity:1"
       id="g5677" /><g
       style="fill:#c3c2b9;fill-opacity:1"
       id="g5679" /><g
       style="fill:#c3c2b9;fill-opacity:1"
       id="g5681" /><g
       style="fill:#c3c2b9;fill-opacity:1"
       id="g5683" /><g
       style="fill:#c3c2b9;fill-opacity:1"
       id="g5685" /><g
       style="fill:#c3c2b9;fill-opacity:1"
       id="g5687" /><g
       style="fill:#c3c2b9;fill-opacity:1"
       id="g5689" /></g></svg>